<svg viewBox="0 0 270.92 270.92" xml:space="preserve" xmlns="http://www.w3.org/2000/svg" shape-rendering="geometricPrecision" text-rendering="geometricPrecision" image-rendering="optimizeQuality" fill-rule="evenodd" clip-rule="evenodd"><path d="M218.45 48.17H51.69c-4.38 0-7.93 3.56-7.93 7.93 0 4.37 3.55 7.93 7.93 7.93h166.76c11.12 0 20.18 9.05 20.18 20.2V186.7c0 11.13-9.06 20.18-20.18 20.18H52.48c-11.12 0-20.18-9.05-20.18-20.18V83.44c0-4.39-3.56-7.94-7.95-7.94-4.37 0-7.92 3.55-7.92 7.94V186.7c0 19.89 16.17 36.05 36.05 36.05h165.97c19.88 0 36.05-16.16 36.05-36.05V84.23c0-19.9-16.17-36.06-36.05-36.06zM191.8 160.83c-4.82 0-8.72-3.91-8.72-8.7 0-4.4-3.56-7.95-7.94-7.95-4.38 0-7.93 3.55-7.93 7.95 0 10.75 7 19.83 16.65 23.15v4.49c0 4.38 3.56 7.95 7.94 7.95 4.39 0 7.93-3.57 7.93-7.95v-4.49c9.66-3.32 16.65-12.4 16.65-23.15 0-13.58-11.02-24.61-24.58-24.61-4.82 0-8.72-3.91-8.72-8.71 0-4.81 3.9-8.72 8.72-8.72 4.8 0 8.71 3.91 8.71 8.72a7.94 7.94 0 0 0 7.94 7.94c4.38 0 7.93-3.56 7.93-7.94 0-10.77-6.99-19.83-16.65-23.16v-4.51c0-4.38-3.54-7.94-7.93-7.94-4.38 0-7.94 3.56-7.94 7.94v4.51c-9.65 3.33-16.65 12.39-16.65 23.16 0 13.56 11.03 24.58 24.59 24.58 4.8 0 8.71 3.91 8.71 8.74 0 4.79-3.91 8.7-8.71 8.7zM56.1 183.08h79.36c4.38 0 7.93-3.57 7.93-7.94 0-4.37-3.55-7.93-7.93-7.93H56.1c-4.38 0-7.93 3.56-7.93 7.93 0 4.37 3.55 7.94 7.93 7.94zm0-79.36h79.36c4.38 0 7.93-3.56 7.93-7.93 0-4.39-3.55-7.94-7.93-7.94H56.1c-4.38 0-7.93 3.55-7.93 7.94 0 4.37 3.55 7.93 7.93 7.93zm0 39.67h79.36c4.38 0 7.93-3.55 7.93-7.94a7.93 7.93 0 0 0-7.93-7.93H56.1a7.93 7.93 0 0 0-7.93 7.93c0 4.39 3.55 7.94 7.93 7.94z" fill="#fafafa" fill-rule="nonzero" class="fill-000000"></path></svg>