<?xml version="1.0" ?><svg id="Capa_1" style="enable-background:new 0 0 362.5 442;" version="1.1" viewBox="0 0 362.5 442" xml:space="preserve" xmlns="http://www.w3.org/2000/svg" xmlns:xlink="http://www.w3.org/1999/xlink"><g><path d="M134.4,214.6c-16.6-5.5-30-17.2-37.8-32.8c-16.1-32.3-3-71.6,29.2-87.8l-13.2-26.4C65.7,91,46.7,148.2,70.1,195   c16.6,33.2,50.2,52.4,85.1,52.4c14.3,0,28.7-3.2,42.3-10L184.3,211C168.7,218.8,150.9,220.1,134.4,214.6z"/><path d="M353.9,363.1l-80.3-120c9.5-12.7,17.2-27.2,22.5-43.1C322.6,120.5,279.5,34.3,200,7.8C120.5-18.7,34.3,24.5,7.8,104   c-26.5,79.5,16.7,165.7,96.2,192.2c15.9,5.3,32,7.8,47.9,7.8c12.7,0,25.2-1.6,37.3-4.7l80.4,120.3c9.8,14.6,25.9,22.5,42.3,22.5   c9.7,0,19.5-2.8,28.1-8.5C363.2,417.9,369.5,386.4,353.9,363.1z M113.3,268.1c-64.1-21.3-98.8-90.8-77.5-154.9   c17.1-51.3,65-83.8,116.3-83.8c12.8,0,25.8,2,38.6,6.3c64.1,21.3,98.8,90.8,77.5,154.9C246.8,254.7,177.3,289.5,113.3,268.1z    M332.5,395.4c-1.1,5.6-4.3,10.4-9,13.5c-9.7,6.5-22.9,3.9-29.4-5.8l-76.4-114.2c12.8-6.1,24.7-14,35.4-23.5l76.3,114.1   C332.5,384.2,333.6,389.9,332.5,395.4z"/></g></svg>