<svg viewBox="0 0 480 480" xmlns="http://www.w3.org/2000/svg"><g data-name="22-graph"><path d="m480 439.782-.008-16-24 .011V176a8 8 0 0 0-8-8H416a8 8 0 0 0-8 8v247.816l-16 .007V352a8 8 0 0 0-8-8h-32a8 8 0 0 0-8 8v71.846l-32 .015V256a8 8 0 0 0-8-8h-32a8 8 0 0 0-8 8v167.884l-16 .007V336a8 8 0 0 0-8-8h-32a8 8 0 0 0-8 8v87.914l-32 .014V224a8 8 0 0 0-8-8h-32a8 8 0 0 0-8 8v199.951l-16 .007V304a8 8 0 0 0-8-8H64a8 8 0 0 0-8 8v119.981L24 424V112H8v320a8 8 0 0 0 8 8ZM424 184h16v239.8l-16 .008Zm-144 80h16v159.869l-16 .007Zm-144-32h16v191.936l-16 .008ZM392 20h64v16h-64zM392 68h64v16h-64zM392 116h64v16h-64z" fill="#fafafa" class="fill-000000"></path><circle cx="364" cy="28" r="12" fill="#fafafa" class="fill-000000"></circle><circle cx="364" cy="76" r="12" fill="#fafafa" class="fill-000000"></circle><circle cx="364" cy="124" r="12" fill="#fafafa" class="fill-000000"></circle><path d="M106.62 117.339a88.129 88.129 0 0 0 61.28 63.305 87.975 87.975 0 1 0-61.275-63.305ZM264 96a72.114 72.114 0 0 1-46.886 67.472L200 95.015v-70.56A72.1 72.1 0 0 1 264 96Zm-80-71.545v65.3l-63.342 15.835A71.863 71.863 0 0 1 184 24.455Z" fill="#fafafa" class="fill-000000"></path></g></svg>